<?xml version="1.0" encoding="UTF-8"?>
<!DOCTYPE svg PUBLIC "-//W3C//DTD SVG 1.1//EN" "http://www.w3.org/Graphics/SVG/1.1/DTD/svg11.dtd">
<svg version="1.1" xmlns="http://www.w3.org/2000/svg" xmlns:xlink="http://www.w3.org/1999/xlink" x="0" y="0" width="40" height="35" viewBox="0, 0, 40, 35">
  <g id="Layer_1">
    <path d="M11.21,28 L29.782,28 C31.919,28 33,26.894 33,24.723 L33,11.277 C33,9.106 31.919,8 29.782,8 L11.21,8 C9.081,8 8,9.098 8,11.277 L8,24.723 C8,26.902 9.081,28 11.21,28 z M9.46,11.353 C9.46,10.136 10.087,9.506 11.243,9.506 L29.757,9.506 C30.888,9.506 31.531,10.136 31.531,11.353 L31.531,23.787 L25.665,18.136 C25.162,17.702 24.634,17.447 24.031,17.447 C23.429,17.447 22.909,17.668 22.414,18.128 L17.579,22.579 L15.591,20.706 C15.137,20.289 14.667,20.068 14.147,20.068 C13.652,20.068 13.214,20.281 12.777,20.689 L9.46,23.804 z M15.863,18.119 C17.241,18.119 18.363,16.953 18.363,15.523 C18.363,14.111 17.241,12.936 15.863,12.936 C14.477,12.936 13.355,14.111 13.355,15.523 C13.355,16.953 14.477,18.119 15.863,18.119 z" fill="#000000"/>
  </g>
</svg>
