<?xml version="1.0" encoding="UTF-8"?>
<!DOCTYPE svg PUBLIC "-//W3C//DTD SVG 1.1//EN" "http://www.w3.org/Graphics/SVG/1.1/DTD/svg11.dtd">
<svg version="1.1" xmlns="http://www.w3.org/2000/svg" xmlns:xlink="http://www.w3.org/1999/xlink" x="0" y="0" width="30" height="30" viewBox="0, 0, 30, 30">
  <g id="Layer_1">
    <path d="M28.846,13.846 L28.648,13.846 C28.096,13.846 27.605,13.457 27.517,12.913 C27.474,12.648 27.423,12.387 27.365,12.128 C27.242,11.593 27.547,11.052 28.053,10.842 L28.233,10.767 C28.822,10.523 29.102,9.848 28.858,9.258 L28.858,9.258 C28.614,8.67 27.939,8.39 27.35,8.634 L27.165,8.71 C26.656,8.922 26.056,8.751 25.764,8.283 C25.623,8.057 25.476,7.836 25.321,7.619 C25.002,7.171 25.075,6.553 25.464,6.164 L25.605,6.023 C26.056,5.572 26.056,4.842 25.605,4.392 L25.605,4.392 C25.154,3.94 24.423,3.94 23.973,4.392 L23.834,4.535 C23.445,4.923 22.827,4.997 22.379,4.678 C22.162,4.523 21.94,4.375 21.714,4.235 C21.247,3.944 21.076,3.343 21.287,2.834 L21.363,2.649 C21.607,2.061 21.328,1.386 20.739,1.141 C20.151,0.898 19.476,1.177 19.231,1.765 L19.156,1.945 C18.946,2.452 18.405,2.757 17.87,2.634 C17.611,2.575 17.349,2.525 17.085,2.482 C16.543,2.395 16.154,1.904 16.154,1.352 L16.154,1.154 C16.154,0.517 15.637,0 15,0 C14.363,0 13.846,0.517 13.846,1.154 L13.846,1.352 C13.846,1.904 13.457,2.395 12.913,2.483 C12.648,2.526 12.387,2.577 12.128,2.635 C11.593,2.758 11.052,2.453 10.842,1.947 L10.767,1.767 C10.523,1.178 9.848,0.898 9.258,1.142 C8.67,1.386 8.39,2.061 8.634,2.65 L8.71,2.835 C8.923,3.343 8.753,3.944 8.285,4.235 C8.058,4.375 7.837,4.523 7.621,4.677 C7.173,4.996 6.555,4.923 6.166,4.535 L6.025,4.394 C5.574,3.943 4.844,3.943 4.394,4.394 L4.394,4.394 C3.944,4.845 3.944,5.575 4.394,6.025 L4.535,6.166 C4.923,6.555 4.996,7.172 4.677,7.621 C4.523,7.837 4.375,8.058 4.235,8.285 C3.944,8.753 3.343,8.923 2.834,8.712 L2.649,8.635 C2.061,8.392 1.386,8.671 1.141,9.26 L1.141,9.26 C0.898,9.848 1.177,10.523 1.765,10.768 L1.945,10.843 C2.452,11.053 2.757,11.594 2.634,12.129 C2.575,12.388 2.525,12.65 2.482,12.914 C2.395,13.457 1.904,13.846 1.352,13.846 L1.154,13.846 C0.517,13.846 0,14.363 0,15 L0,15 C0,15.637 0.517,16.154 1.154,16.154 L1.352,16.154 C1.904,16.154 2.395,16.543 2.483,17.087 C2.526,17.352 2.577,17.613 2.635,17.872 C2.758,18.407 2.453,18.948 1.947,19.158 L1.767,19.233 C1.178,19.477 0.898,20.152 1.142,20.742 L1.142,20.742 C1.386,21.33 2.061,21.61 2.65,21.366 L2.835,21.29 C3.344,21.078 3.944,21.249 4.236,21.717 C4.377,21.943 4.524,22.164 4.679,22.381 C4.998,22.829 4.925,23.447 4.536,23.836 L4.395,23.977 C3.944,24.428 3.944,25.158 4.395,25.608 C4.846,26.058 5.577,26.06 6.027,25.608 L6.167,25.468 C6.556,25.079 7.175,25.005 7.622,25.325 C7.839,25.479 8.061,25.627 8.287,25.768 C8.754,26.058 8.925,26.66 8.714,27.168 L8.638,27.353 C8.394,27.942 8.673,28.617 9.262,28.861 C9.85,29.105 10.525,28.825 10.77,28.237 L10.845,28.057 C11.055,27.55 11.596,27.246 12.132,27.368 C12.39,27.427 12.652,27.478 12.916,27.52 C13.457,27.605 13.846,28.096 13.846,28.648 L13.846,28.846 C13.846,29.483 14.363,30 15,30 C15.637,30 16.154,29.483 16.154,28.846 L16.154,28.648 C16.154,28.096 16.543,27.605 17.087,27.517 C17.352,27.474 17.613,27.423 17.872,27.365 C18.407,27.242 18.948,27.547 19.158,28.053 L19.233,28.233 C19.477,28.822 20.152,29.102 20.742,28.858 C21.33,28.614 21.61,27.939 21.366,27.35 L21.29,27.165 C21.078,26.656 21.249,26.056 21.717,25.764 C21.943,25.623 22.164,25.476 22.381,25.321 C22.829,25.002 23.447,25.075 23.836,25.464 L23.977,25.605 C24.428,26.056 25.158,26.056 25.608,25.605 C26.058,25.154 26.06,24.423 25.608,23.973 L25.468,23.833 C25.079,23.444 25.005,22.825 25.325,22.378 C25.479,22.161 25.627,21.939 25.768,21.713 C26.058,21.246 26.66,21.075 27.168,21.286 L27.353,21.362 C27.942,21.606 28.617,21.327 28.861,20.738 L28.861,20.738 C29.105,20.15 28.825,19.475 28.237,19.23 L28.057,19.155 C27.55,18.945 27.246,18.404 27.368,17.868 C27.427,17.61 27.478,17.348 27.52,17.084 C27.605,16.543 28.096,16.154 28.648,16.154 L28.846,16.154 C29.483,16.154 30,15.637 30,15 L30,15 C30,14.363 29.483,13.846 28.846,13.846 z M15,24.231 C9.902,24.231 5.769,20.098 5.769,15 C5.769,9.902 9.902,5.769 15,5.769 C20.098,5.769 24.231,9.902 24.231,15 C24.231,20.098 20.098,24.231 15,24.231 z" fill="#000000"/>
    <path d="M15,14 L26,14 L26,16 L15,16 z" fill="#000000"/>
    <path d="M17,15 C17,16.105 16.105,17 15,17 C13.895,17 13,16.105 13,15 C13,13.895 13.895,13 15,13 C16.105,13 17,13.895 17,15 z" fill="#000000"/>
    <path d="M14.134,15.5 L8.634,5.974 L10.366,4.974 L15.866,14.5 z" fill="#000000"/>
    <path d="M15.866,15.5 L10.366,25.026 L8.634,24.026 L14.134,14.5 z" fill="#000000"/>
  </g>
</svg>
