<?xml version="1.0" encoding="UTF-8"?>
<!DOCTYPE svg PUBLIC "-//W3C//DTD SVG 1.1//EN" "http://www.w3.org/Graphics/SVG/1.1/DTD/svg11.dtd">
<svg version="1.1" xmlns="http://www.w3.org/2000/svg" xmlns:xlink="http://www.w3.org/1999/xlink" x="0" y="0" width="60" height="60" viewBox="0, 0, 60, 60">
  <defs>
    <clipPath id="Clip_1">
      <path d="M12.927,10 C15.191,10.1 16.905,11.417 18.579,12.782 C20.167,14.426 22.011,17.071 23.092,19.233 C23.713,20.477 24.063,21.496 24.062,22.322 C24.063,24.048 22.598,24.828 20.981,24.231 C20.204,23.945 19.806,23.082 20.093,22.305 C20.49,21.661 20.225,21.881 20.845,21.595 C20.614,20.968 20.754,21.31 20.408,20.575 C19.461,18.679 17.792,16.286 16.421,14.866 C14.176,12.541 11.989,12.408 9.332,14.179 C7.044,15.704 6,18.001 6,20.931 C6,23.423 7.492,25.123 11.332,27.683 C14.654,29.897 16,32.32 16,35.931 C16,39.494 12.644,42.431 9.5,42.431 C6.974,42.431 5.472,41.229 4.158,38.602 C3.788,37.861 4.088,36.96 4.829,36.589 C5.57,36.219 6.471,36.519 6.842,37.26 C7.695,38.966 8.276,39.431 9.5,39.431 C11.07,39.431 13,37.742 13,35.931 C13,33.341 12.17,31.847 9.668,30.179 C5.045,27.097 3,24.767 3,20.931 C3,17.061 4.478,13.809 7.668,11.683 C9.951,10.368 8.571,11.017 11.929,10.012 L12.927,10 z"/>
    </clipPath>
    <clipPath id="Clip_2">
      <path d="M9.853,12.67 C12.057,12.142 14.067,12.935 16.053,13.786 C18.033,14.929 20.534,16.963 22.169,18.744 C23.11,19.768 23.726,20.652 23.954,21.445 C24.43,23.104 23.237,24.258 21.518,24.13 C20.692,24.069 20.072,23.349 20.133,22.523 C20.337,21.794 20.143,22.079 20.66,21.634 C20.266,21.094 20.494,21.385 19.96,20.773 C18.526,19.212 16.262,17.371 14.553,16.384 C11.754,14.768 9.615,15.243 7.549,17.678 C5.77,19.775 5.4,22.27 6.207,25.087 C6.894,27.482 8.797,28.705 13.194,30.107 C16.998,31.32 18.959,33.278 19.955,36.749 C20.937,40.175 18.521,43.922 15.498,44.789 C13.07,45.485 11.295,44.744 9.308,42.58 C8.747,41.97 8.788,41.021 9.398,40.461 C10.008,39.901 10.957,39.941 11.517,40.551 C12.807,41.956 13.494,42.243 14.671,41.905 C16.18,41.472 17.57,39.317 17.071,37.576 C16.357,35.087 15.147,33.879 12.282,32.965 C6.989,31.277 4.381,29.601 3.323,25.913 C2.257,22.193 2.781,18.661 5.261,15.737 C7.094,13.844 5.946,14.848 8.897,12.957 L9.853,12.67 z"/>
    </clipPath>
    <clipPath id="Clip_3">
      <path d="M19.617,12.004 C20.804,12.598 20.439,12.183 20.923,13.026 C21.185,13.812 20.76,14.661 19.974,14.923 C18.707,15.345 18.32,15.483 17.98,15.64 C17.648,15.793 17.554,15.874 17.393,16.129 C17.271,16.322 17.16,16.534 16.842,17.171 C16.471,17.912 15.57,18.212 14.829,17.842 C14.088,17.471 13.788,16.57 14.158,15.829 C14.528,15.091 14.66,14.839 14.857,14.527 C15.332,13.775 15.872,13.309 16.723,12.916 C17.209,12.692 17.626,12.544 19.026,12.077 L19.617,12.004 z"/>
    </clipPath>
  </defs>
  <g id="Layer_1">
    <path d="M10,0 L50,0 C55.523,0 60,4.477 60,10 L60,50 C60,55.523 55.523,60 50,60 L10,60 C4.477,60 0,55.523 0,50 L0,10 C0,4.477 4.477,0 10,0 z" fill="#008000"/>
  </g>
  <g id="Layer_3">
    <g>
      <g>
        <g>
          <path d="M16.942,18.739 L32.058,10.012 C33.623,9.108 35.503,9.433 36.256,10.737 L53.529,40.655 C54.282,41.959 53.623,43.749 52.058,44.653 L36.942,53.38 C35.377,54.284 33.497,53.959 32.744,52.655 L15.471,22.737 C14.718,21.433 15.377,19.643 16.942,18.739 z" fill="#D78C29"/>
          <path d="M16.942,18.739 L32.058,10.012 C33.623,9.108 35.503,9.433 36.256,10.737 L53.529,40.655 C54.282,41.959 53.623,43.749 52.058,44.653 L36.942,53.38 C35.377,54.284 33.497,53.959 32.744,52.655 L15.471,22.737 C14.718,21.433 15.377,19.643 16.942,18.739 z" fill-opacity="0" stroke="#FFFFFF" stroke-width="2"/>
        </g>
        <path d="M20.043,16.622 L28.357,11.822 L29.057,13.034 C29.444,13.704 29.199,14.569 28.51,14.967 L22.69,18.327 C22.001,18.724 21.13,18.504 20.743,17.834 L20.043,16.622 z" fill="#FFFFFF"/>
      </g>
      <g>
        <path d="M22.779,29.361 L38.021,20.561 C38.404,20.34 38.893,20.471 39.114,20.853 L45.514,31.939 C45.735,32.321 45.604,32.81 45.221,33.031 L29.979,41.831 C29.596,42.052 29.107,41.921 28.886,41.539 L22.486,30.453 C22.265,30.071 22.396,29.582 22.779,29.361 z" fill="#000000"/>
        <g>
          <path d="M27.03,31.39 L30.422,29.432" fill-opacity="0" stroke="#FFFFFF" stroke-width="2"/>
          <path d="M31.807,28.632 L37.97,25.074" fill-opacity="0" stroke="#FFFFFF" stroke-width="2"/>
          <path d="M27.572,35.696 L37.964,29.696" fill-opacity="0" stroke="#FFFFFF" stroke-width="2"/>
          <path d="M39.24,28.959 L41.428,27.696" fill-opacity="0" stroke="#FFFFFF" stroke-width="2"/>
          <path d="M41.97,32.002 L31.03,38.318" fill-opacity="0" stroke="#FFFFFF" stroke-width="2"/>
        </g>
      </g>
      <g>
        <path d="M23.371,25.42 C22.175,26.11 20.646,25.7 19.956,24.505 C19.265,23.309 19.675,21.78 20.871,21.09 C22.066,20.399 23.595,20.809 24.286,22.005 C24.976,23.2 24.566,24.729 23.371,25.42 z" fill="#008001"/>
        <path d="M23.371,25.42 C22.175,26.11 20.646,25.7 19.956,24.505 C19.265,23.309 19.675,21.78 20.871,21.09 C22.066,20.399 23.595,20.809 24.286,22.005 C24.976,23.2 24.566,24.729 23.371,25.42 z" fill-opacity="0" stroke="#000000" stroke-width="0.5"/>
      </g>
      <path d="M18.711,31.714 L20.443,30.714 L22.443,34.178 L20.711,35.178 L18.711,31.714 z" fill="#FFFFFF"/>
      <path d="M16.211,27.384 L17.943,26.384 L19.943,29.848 L18.211,30.848 L16.211,27.384 z" fill="#FFFFFF"/>
      <path d="M14.711,24.786 L16.443,23.786 L17.443,25.518 L15.711,26.518 L14.711,24.786 z" fill="#FFFFFF"/>
      <path d="M36.861,13.152 L38.593,12.152 L42.093,18.214 L40.361,19.214 L36.861,13.152 z" fill="#FFFFFF"/>
    </g>
  </g>
  <g id="Layer_2">
    <g>
      <path d="M12.927,10 C15.191,10.1 16.905,11.417 18.579,12.782 C20.167,14.426 22.011,17.071 23.092,19.233 C23.713,20.477 24.063,21.496 24.062,22.322 C24.063,24.048 22.598,24.828 20.981,24.231 C20.204,23.945 19.806,23.082 20.093,22.305 C20.49,21.661 20.225,21.881 20.845,21.595 C20.614,20.968 20.754,21.31 20.408,20.575 C19.461,18.679 17.792,16.286 16.421,14.866 C14.176,12.541 11.989,12.408 9.332,14.179 C7.044,15.704 6,18.001 6,20.931 C6,23.423 7.492,25.123 11.332,27.683 C14.654,29.897 16,32.32 16,35.931 C16,39.494 12.644,42.431 9.5,42.431 C6.974,42.431 5.472,41.229 4.158,38.602 C3.788,37.861 4.088,36.96 4.829,36.589 C5.57,36.219 6.471,36.519 6.842,37.26 C7.695,38.966 8.276,39.431 9.5,39.431 C11.07,39.431 13,37.742 13,35.931 C13,33.341 12.17,31.847 9.668,30.179 C5.045,27.097 3,24.767 3,20.931 C3,17.061 4.478,13.809 7.668,11.683 C9.951,10.368 8.571,11.017 11.929,10.012 L12.927,10 z" fill="#EBE8BC"/>
      <g clip-path="url(#Clip_1)">
        <g>
          <path d="M8.5,38.5 C8.5,39.605 6.709,40.5 4.5,40.5" fill-opacity="0" stroke="#383838" stroke-width="0.5"/>
          <path d="M9.5,39.5 C9.5,41.157 8.157,42.5 6.5,42.5" fill-opacity="0" stroke="#383838" stroke-width="0.5"/>
          <path d="M12.5,43.5 C11.395,43.5 10.5,41.709 10.5,39.5" fill-opacity="0" stroke="#383838" stroke-width="0.5"/>
          <path d="M15.5,42.5 C13.843,42.5 12.5,40.709 12.5,38.5" fill-opacity="0" stroke="#383838" stroke-width="0.5"/>
          <path d="M16.5,39.5 C14.843,39.5 13.5,38.126 13.5,36.431" fill-opacity="0" stroke="#383838" stroke-width="0.5"/>
          <path d="M17.5,36.431 C14.739,36.431 12.5,35.566 12.5,34.5" fill-opacity="0" stroke="#383838" stroke-width="0.5"/>
          <path d="M17.5,32.5 C17.5,33.052 15.261,33.5 12.5,33.5" fill-opacity="0" stroke="#383838" stroke-width="0.5"/>
          <path d="M14.5,29.5 C14.5,31.157 13.157,32.5 11.5,32.5" fill-opacity="0" stroke="#383838" stroke-width="0.5"/>
          <path d="M12.5,27.5 C12.5,29.709 11.157,31.5 9.5,31.5" fill-opacity="0" stroke="#383838" stroke-width="0.5"/>
          <path d="M10.5,26.5 C10.5,28.709 9.605,30.5 8.5,30.5" fill-opacity="0" stroke="#383838" stroke-width="0.5"/>
          <path d="M9.5,26.5 L9.5,26.5" fill-opacity="0" stroke="#383838" stroke-width="0.5"/>
          <path d="M9.5,24.5 C9.5,26.709 8.157,28.5 6.5,28.5" fill-opacity="0" stroke="#383838" stroke-width="0.5"/>
          <path d="M7.5,23.5 C7.5,25.157 6.157,26.5 4.5,26.5" fill-opacity="0" stroke="#383838" stroke-width="0.5"/>
          <path d="M7.5,21.5 C7.5,22.605 5.709,23.5 3.5,23.5" fill-opacity="0" stroke="#383838" stroke-width="0.5"/>
          <path d="M4.5,15.5 L4.5,15.5" fill-opacity="0" stroke="#383838" stroke-width="0.5"/>
          <path d="M8.5,18.5 C5.739,18.5 3.5,16.709 3.5,14.5" fill-opacity="0" stroke="#383838" stroke-width="0.5"/>
          <path d="M7.5,20.5 C4.739,20.5 2.5,20.052 2.5,19.5" fill-opacity="0" stroke="#383838" stroke-width="0.5"/>
          <path d="M8.5,16.5 C6.843,16.5 5.5,15.157 5.5,13.5" fill-opacity="0" stroke="#383838" stroke-width="0.5"/>
          <path d="M9.5,15.5 C8.395,15.5 7.5,13.709 7.5,11.5" fill-opacity="0" stroke="#383838" stroke-width="0.5"/>
          <path d="M11.5,14.5 C10.948,14.5 10.5,12.709 10.5,10.5" fill-opacity="0" stroke="#383838" stroke-width="0.5"/>
          <path d="M13.5,14.5 C13.5,14.5 13.5,12.261 13.5,9.5" fill-opacity="0" stroke="#383838" stroke-width="0.5"/>
          <path d="M15.5,15.5 C15.5,12.739 16.395,10.5 17.5,10.5" fill-opacity="0" stroke="#383838" stroke-width="0.5"/>
          <path d="M16.5,16.5 C16.5,14.843 17.843,13.5 19.5,13.5" fill-opacity="0" stroke="#383838" stroke-width="0.5"/>
          <path d="M17.5,18.5 C17.5,16.843 19.291,15.5 21.5,15.5" fill-opacity="0" stroke="#383838" stroke-width="0.5"/>
          <path d="M19.5,19.5 C19.5,18.395 20.843,17.5 22.5,17.5" fill-opacity="0" stroke="#383838" stroke-width="0.5"/>
          <path d="M19.5,20.5 C19.5,19.948 21.739,19.5 24.5,19.5" fill-opacity="0" stroke="#383838" stroke-width="0.5"/>
          <path d="M20.5,21.5 C22.709,21.5 24.5,22.395 24.5,23.5" fill-opacity="0" stroke="#383838" stroke-width="0.5"/>
        </g>
      </g>
      <path d="M13.427,10.5 C15.691,10.6 17.405,11.917 19.079,13.282 C20.667,14.926 22.511,17.571 23.592,19.733 C24.213,20.977 24.563,21.996 24.562,22.822 C24.563,24.548 23.098,25.328 21.481,24.731 C20.704,24.445 20.306,23.582 20.593,22.805 C20.99,22.161 20.725,22.381 21.345,22.095 C21.114,21.468 21.254,21.81 20.908,21.075 C19.961,19.179 18.292,16.786 16.921,15.366 C14.676,13.041 12.489,12.908 9.832,14.679 C7.544,16.204 6.5,18.501 6.5,21.431 C6.5,23.923 7.992,25.623 11.832,28.183 C15.154,30.397 16.5,32.82 16.5,36.431 C16.5,39.994 13.144,42.931 10,42.931 C7.474,42.931 5.972,41.729 4.658,39.102 C4.288,38.361 4.588,37.46 5.329,37.089 C6.07,36.719 6.971,37.019 7.342,37.76 C8.195,39.466 8.776,39.931 10,39.931 C11.57,39.931 13.5,38.242 13.5,36.431 C13.5,33.841 12.67,32.347 10.168,30.679 C5.545,27.597 3.5,25.267 3.5,21.431 C3.5,17.561 4.978,14.309 8.168,12.183 C10.451,10.868 9.071,11.517 12.429,10.512 L13.427,10.5 z" fill-opacity="0" stroke="#BFBFBF" stroke-width="0.4" stroke-linecap="round"/>
    </g>
    <g>
      <path d="M9.853,12.67 C12.057,12.142 14.067,12.935 16.053,13.786 C18.033,14.929 20.534,16.963 22.169,18.744 C23.11,19.768 23.726,20.652 23.954,21.445 C24.43,23.104 23.237,24.258 21.518,24.13 C20.692,24.069 20.072,23.349 20.133,22.523 C20.337,21.794 20.143,22.079 20.66,21.634 C20.266,21.094 20.494,21.385 19.96,20.773 C18.526,19.212 16.262,17.371 14.553,16.384 C11.754,14.768 9.615,15.243 7.549,17.678 C5.77,19.775 5.4,22.27 6.207,25.087 C6.894,27.482 8.797,28.705 13.194,30.107 C16.998,31.32 18.959,33.278 19.955,36.749 C20.937,40.175 18.521,43.922 15.498,44.789 C13.07,45.485 11.295,44.744 9.308,42.58 C8.747,41.97 8.788,41.021 9.398,40.461 C10.008,39.901 10.957,39.941 11.517,40.551 C12.807,41.956 13.494,42.243 14.671,41.905 C16.18,41.472 17.57,39.317 17.071,37.576 C16.357,35.087 15.147,33.879 12.282,32.965 C6.989,31.277 4.381,29.601 3.323,25.913 C2.257,22.193 2.781,18.661 5.261,15.737 C7.094,13.844 5.946,14.848 8.897,12.957 L9.853,12.67 z" fill="#EBE8BC"/>
      <g clip-path="url(#Clip_2)">
        <g>
          <path d="M13.335,41.443 C13.639,42.505 12.164,43.86 10.041,44.468" fill-opacity="0" stroke="#383838" stroke-width="0.5"/>
          <path d="M14.572,42.129 C15.028,43.722 14.107,45.383 12.515,45.84" fill-opacity="0" stroke="#383838" stroke-width="0.5"/>
          <path d="M18.558,45.147 C17.496,45.452 16.142,43.977 15.533,41.853" fill-opacity="0" stroke="#383838" stroke-width="0.5"/>
          <path d="M21.166,43.359 C19.574,43.816 17.789,42.464 17.18,40.341" fill-opacity="0" stroke="#383838" stroke-width="0.5"/>
          <path d="M21.301,40.2 C19.708,40.656 18.038,39.705 17.571,38.076" fill-opacity="0" stroke="#383838" stroke-width="0.5"/>
          <path d="M21.416,36.973 C18.761,37.735 16.371,37.521 16.077,36.496" fill-opacity="0" stroke="#383838" stroke-width="0.5"/>
          <path d="M20.332,33.195 C20.485,33.726 18.456,34.773 15.802,35.534" fill-opacity="0" stroke="#383838" stroke-width="0.5"/>
          <path d="M16.622,31.138 C17.078,32.731 16.157,34.392 14.565,34.849" fill-opacity="0" stroke="#383838" stroke-width="0.5"/>
          <path d="M14.148,29.767 C14.757,31.89 13.959,33.982 12.367,34.439" fill-opacity="0" stroke="#383838" stroke-width="0.5"/>
          <path d="M11.95,29.357 C12.559,31.48 12.191,33.449 11.13,33.753" fill-opacity="0" stroke="#383838" stroke-width="0.5"/>
          <path d="M10.988,29.633 L10.988,29.633" fill-opacity="0" stroke="#383838" stroke-width="0.5"/>
          <path d="M10.437,27.71 C11.046,29.834 10.248,31.925 8.656,32.382" fill-opacity="0" stroke="#383838" stroke-width="0.5"/>
          <path d="M8.239,27.3 C8.696,28.893 7.775,30.554 6.182,31.011" fill-opacity="0" stroke="#383838" stroke-width="0.5"/>
          <path d="M7.688,25.378 C7.992,26.439 6.517,27.794 4.394,28.403" fill-opacity="0" stroke="#383838" stroke-width="0.5"/>
          <path d="M3.15,20.437 L3.15,20.437" fill-opacity="0" stroke="#383838" stroke-width="0.5"/>
          <path d="M7.822,22.218 C5.167,22.979 2.522,21.875 1.913,19.751" fill-opacity="0" stroke="#383838" stroke-width="0.5"/>
          <path d="M7.412,24.416 C4.757,25.177 2.482,25.364 2.33,24.833" fill-opacity="0" stroke="#383838" stroke-width="0.5"/>
          <path d="M7.271,20.296 C5.678,20.752 4.017,19.831 3.56,18.239" fill-opacity="0" stroke="#383838" stroke-width="0.5"/>
          <path d="M7.956,19.059 C6.894,19.363 5.54,17.888 4.931,15.765" fill-opacity="0" stroke="#383838" stroke-width="0.5"/>
          <path d="M9.603,17.546 C9.072,17.698 8.148,16.1 7.539,13.977" fill-opacity="0" stroke="#383838" stroke-width="0.5"/>
          <path d="M11.526,16.995 C11.526,16.995 10.909,14.843 10.148,12.189" fill-opacity="0" stroke="#383838" stroke-width="0.5"/>
          <path d="M13.724,17.405 C12.963,14.75 13.206,12.352 14.268,12.047" fill-opacity="0" stroke="#383838" stroke-width="0.5"/>
          <path d="M14.961,18.09 C14.504,16.498 15.425,14.836 17.018,14.38" fill-opacity="0" stroke="#383838" stroke-width="0.5"/>
          <path d="M16.473,19.737 C16.017,18.145 17.368,16.36 19.492,15.751" fill-opacity="0" stroke="#383838" stroke-width="0.5"/>
          <path d="M18.672,20.147 C18.367,19.086 19.411,17.855 21.004,17.398" fill-opacity="0" stroke="#383838" stroke-width="0.5"/>
          <path d="M18.947,21.109 C18.795,20.578 20.823,19.53 23.478,18.769" fill-opacity="0" stroke="#383838" stroke-width="0.5"/>
          <path d="M20.184,21.794 C22.308,21.185 24.276,21.552 24.581,22.614" fill-opacity="0" stroke="#383838" stroke-width="0.5"/>
        </g>
      </g>
      <path d="M10.353,13.17 C12.557,12.642 14.567,13.435 16.553,14.286 C18.533,15.429 21.034,17.463 22.669,19.244 C23.61,20.268 24.226,21.152 24.454,21.945 C24.93,23.604 23.737,24.758 22.018,24.63 C21.192,24.569 20.572,23.849 20.633,23.023 C20.837,22.294 20.643,22.579 21.16,22.134 C20.766,21.594 20.994,21.885 20.46,21.273 C19.026,19.712 16.762,17.871 15.053,16.884 C12.254,15.268 10.115,15.743 8.049,18.178 C6.27,20.275 5.9,22.77 6.707,25.587 C7.394,27.982 9.297,29.205 13.694,30.607 C17.498,31.82 19.459,33.778 20.455,37.249 C21.437,40.675 19.021,44.422 15.998,45.289 C13.57,45.985 11.795,45.244 9.808,43.08 C9.247,42.47 9.288,41.521 9.898,40.961 C10.508,40.401 11.457,40.441 12.017,41.051 C13.307,42.456 13.994,42.743 15.171,42.405 C16.68,41.972 18.07,39.817 17.571,38.076 C16.857,35.587 15.647,34.379 12.782,33.465 C7.489,31.777 4.881,30.101 3.823,26.413 C2.757,22.693 3.281,19.161 5.761,16.237 C7.594,14.344 6.446,15.348 9.397,13.457 L10.353,13.17 z" fill-opacity="0" stroke="#BFBFBF" stroke-width="0.4" stroke-linecap="round"/>
    </g>
    <g>
      <path d="M19.617,12.004 C20.804,12.598 20.439,12.183 20.923,13.026 C21.185,13.812 20.76,14.661 19.974,14.923 C18.707,15.345 18.32,15.483 17.98,15.64 C17.648,15.793 17.554,15.874 17.393,16.129 C17.271,16.322 17.16,16.534 16.842,17.171 C16.471,17.912 15.57,18.212 14.829,17.842 C14.088,17.471 13.788,16.57 14.158,15.829 C14.528,15.091 14.66,14.839 14.857,14.527 C15.332,13.775 15.872,13.309 16.723,12.916 C17.209,12.692 17.626,12.544 19.026,12.077 L19.617,12.004 z" fill="#EBE8BC"/>
      <g clip-path="url(#Clip_3)">
        <path d="M18.5,17.5 C16.291,17.5 14.5,16.157 14.5,14.5" fill-opacity="0" stroke="#383838" stroke-width="0.4"/>
        <path d="M19.5,16.5 C17.843,16.5 16.5,15.157 16.5,13.5" fill-opacity="0" stroke="#383838" stroke-width="0.4"/>
        <path d="M21.062,16.496 C19.062,15.496 19,14.707 19,12.5" fill-opacity="0" stroke="#383838" stroke-width="0.4"/>
      </g>
      <path d="M20.117,12.504 C21.304,13.098 20.939,12.683 21.423,13.526 C21.685,14.312 21.26,15.161 20.474,15.423 C19.207,15.845 18.82,15.983 18.48,16.14 C18.148,16.293 18.054,16.374 17.893,16.629 C17.771,16.822 17.66,17.034 17.342,17.671 C16.971,18.412 16.07,18.712 15.329,18.342 C14.588,17.971 14.288,17.07 14.658,16.329 C15.028,15.591 15.16,15.339 15.357,15.027 C15.832,14.275 16.372,13.809 17.223,13.416 C17.709,13.192 18.126,13.044 19.526,12.577 L20.117,12.504 z" fill-opacity="0" stroke="#BFBFBF" stroke-width="0.4" stroke-linecap="round"/>
    </g>
  </g>
</svg>
