<?xml version="1.0" encoding="UTF-8"?>
<!DOCTYPE svg PUBLIC "-//W3C//DTD SVG 1.1//EN" "http://www.w3.org/Graphics/SVG/1.1/DTD/svg11.dtd">
<svg version="1.1" xmlns="http://www.w3.org/2000/svg" xmlns:xlink="http://www.w3.org/1999/xlink" x="0" y="0" width="60" height="60" viewBox="0, 0, 60, 60">
  <defs>
    <clipPath id="Clip_1">
      <path d="M12.927,10 C15.191,10.1 16.905,11.417 18.579,12.782 C20.167,14.426 22.011,17.071 23.092,19.233 C23.713,20.477 24.063,21.496 24.062,22.322 C24.063,24.048 22.598,24.828 20.981,24.231 C20.204,23.945 19.806,23.082 20.093,22.305 C20.49,21.661 20.225,21.881 20.845,21.595 C20.614,20.968 20.754,21.31 20.408,20.575 C19.461,18.679 17.792,16.286 16.421,14.866 C14.176,12.541 11.989,12.408 9.332,14.179 C7.044,15.704 6,18.001 6,20.931 C6,23.423 7.492,25.123 11.332,27.683 C14.654,29.897 16,32.32 16,35.931 C16,39.494 12.644,42.431 9.5,42.431 C6.974,42.431 5.472,41.229 4.158,38.602 C3.788,37.861 4.088,36.96 4.829,36.589 C5.57,36.219 6.471,36.519 6.842,37.26 C7.695,38.966 8.276,39.431 9.5,39.431 C11.07,39.431 13,37.742 13,35.931 C13,33.341 12.17,31.847 9.668,30.179 C5.045,27.097 3,24.767 3,20.931 C3,17.061 4.478,13.809 7.668,11.683 C9.951,10.368 8.571,11.017 11.929,10.012 L12.927,10 z"/>
    </clipPath>
    <clipPath id="Clip_2">
      <path d="M9.853,12.67 C12.057,12.142 14.067,12.935 16.053,13.786 C18.033,14.929 20.534,16.963 22.169,18.744 C23.11,19.768 23.726,20.652 23.954,21.445 C24.43,23.104 23.237,24.258 21.518,24.13 C20.692,24.069 20.072,23.349 20.133,22.523 C20.337,21.794 20.143,22.079 20.66,21.634 C20.266,21.094 20.494,21.385 19.96,20.773 C18.526,19.212 16.262,17.371 14.553,16.384 C11.754,14.768 9.615,15.243 7.549,17.678 C5.77,19.775 5.4,22.27 6.207,25.087 C6.894,27.482 8.797,28.705 13.194,30.107 C16.998,31.32 18.959,33.278 19.955,36.749 C20.937,40.175 18.521,43.922 15.498,44.789 C13.07,45.485 11.295,44.744 9.308,42.58 C8.747,41.97 8.788,41.021 9.398,40.461 C10.008,39.901 10.957,39.941 11.517,40.551 C12.807,41.956 13.494,42.243 14.671,41.905 C16.18,41.472 17.57,39.317 17.071,37.576 C16.357,35.087 15.147,33.879 12.282,32.965 C6.989,31.277 4.381,29.601 3.323,25.913 C2.257,22.193 2.781,18.661 5.261,15.737 C7.094,13.844 5.946,14.848 8.897,12.957 L9.853,12.67 z"/>
    </clipPath>
    <clipPath id="Clip_3">
      <path d="M19.617,12.004 C20.804,12.598 20.439,12.183 20.923,13.026 C21.185,13.812 20.76,14.661 19.974,14.923 C18.707,15.345 18.32,15.483 17.98,15.64 C17.648,15.793 17.554,15.874 17.393,16.129 C17.271,16.322 17.16,16.534 16.842,17.171 C16.471,17.912 15.57,18.212 14.829,17.842 C14.088,17.471 13.788,16.57 14.158,15.829 C14.528,15.091 14.66,14.839 14.857,14.527 C15.332,13.775 15.872,13.309 16.723,12.916 C17.209,12.692 17.626,12.544 19.026,12.077 L19.617,12.004 z"/>
    </clipPath>
  </defs>
  <g id="Layer_1">
    <path d="M0,0 L60,0 L60,60 L0,60 L0,0 z" fill="#008000"/>
  </g>
  <g id="Layer_3">
    <g>
      <g>
        <g>
          <path d="M16.442,18.239 L31.558,9.512 C33.123,8.608 35.003,8.933 35.756,10.237 L53.029,40.155 C53.782,41.459 53.123,43.249 51.558,44.153 L36.442,52.88 C34.877,53.784 32.997,53.459 32.244,52.155 L14.971,22.237 C14.218,20.933 14.877,19.143 16.442,18.239 z" fill="#D78C29"/>
          <path d="M16.442,18.239 L31.558,9.512 C33.123,8.608 35.003,8.933 35.756,10.237 L53.029,40.155 C53.782,41.459 53.123,43.249 51.558,44.153 L36.442,52.88 C34.877,53.784 32.997,53.459 32.244,52.155 L14.971,22.237 C14.218,20.933 14.877,19.143 16.442,18.239 z" fill-opacity="0" stroke="#FFFFFF" stroke-width="2"/>
        </g>
        <path d="M20.043,16.622 L28.357,11.822 L29.057,13.034 C29.444,13.704 29.199,14.569 28.51,14.967 L22.69,18.327 C22.001,18.724 21.13,18.504 20.743,17.834 L20.043,16.622 z" fill="#FFFFFF"/>
      </g>
      <g>
        <path d="M22.779,29.361 L38.021,20.561 C38.404,20.34 38.893,20.471 39.114,20.853 L45.514,31.939 C45.735,32.321 45.604,32.81 45.221,33.031 L29.979,41.831 C29.596,42.052 29.107,41.921 28.886,41.539 L22.486,30.453 C22.265,30.071 22.396,29.582 22.779,29.361 z" fill="#000000"/>
        <g>
          <path d="M26.53,30.89 L29.922,28.932" fill-opacity="0" stroke="#FFFFFF" stroke-width="2"/>
          <path d="M31.307,28.132 L37.47,24.574" fill-opacity="0" stroke="#FFFFFF" stroke-width="2"/>
          <path d="M27.072,35.196 L37.464,29.196" fill-opacity="0" stroke="#FFFFFF" stroke-width="2"/>
          <path d="M38.74,28.459 L40.928,27.196" fill-opacity="0" stroke="#FFFFFF" stroke-width="2"/>
          <path d="M41.47,31.502 L30.53,37.818" fill-opacity="0" stroke="#FFFFFF" stroke-width="2"/>
        </g>
      </g>
      <g>
        <path d="M22.871,24.92 C21.675,25.61 20.146,25.2 19.456,24.005 C18.765,22.809 19.175,21.28 20.371,20.59 C21.566,19.899 23.095,20.309 23.786,21.505 C24.476,22.7 24.066,24.229 22.871,24.92 z" fill="#008001"/>
        <path d="M22.871,24.92 C21.675,25.61 20.146,25.2 19.456,24.005 C18.765,22.809 19.175,21.28 20.371,20.59 C21.566,19.899 23.095,20.309 23.786,21.505 C24.476,22.7 24.066,24.229 22.871,24.92 z" fill-opacity="0" stroke="#000000" stroke-width="0.5"/>
      </g>
      <path d="M18.711,31.714 L20.443,30.714 L22.443,34.178 L20.711,35.178 L18.711,31.714 z" fill="#FFFFFF"/>
      <path d="M16.211,27.384 L17.943,26.384 L19.943,29.848 L18.211,30.848 L16.211,27.384 z" fill="#FFFFFF"/>
      <path d="M14.711,24.786 L16.443,23.786 L17.443,25.518 L15.711,26.518 L14.711,24.786 z" fill="#FFFFFF"/>
      <path d="M36.861,13.152 L38.593,12.152 L42.093,18.214 L40.361,19.214 L36.861,13.152 z" fill="#FFFFFF"/>
    </g>
  </g>
  <g id="Layer_2">
    <g>
      <path d="M12.927,10 C15.191,10.1 16.905,11.417 18.579,12.782 C20.167,14.426 22.011,17.071 23.092,19.233 C23.713,20.477 24.063,21.496 24.062,22.322 C24.063,24.048 22.598,24.828 20.981,24.231 C20.204,23.945 19.806,23.082 20.093,22.305 C20.49,21.661 20.225,21.881 20.845,21.595 C20.614,20.968 20.754,21.31 20.408,20.575 C19.461,18.679 17.792,16.286 16.421,14.866 C14.176,12.541 11.989,12.408 9.332,14.179 C7.044,15.704 6,18.001 6,20.931 C6,23.423 7.492,25.123 11.332,27.683 C14.654,29.897 16,32.32 16,35.931 C16,39.494 12.644,42.431 9.5,42.431 C6.974,42.431 5.472,41.229 4.158,38.602 C3.788,37.861 4.088,36.96 4.829,36.589 C5.57,36.219 6.471,36.519 6.842,37.26 C7.695,38.966 8.276,39.431 9.5,39.431 C11.07,39.431 13,37.742 13,35.931 C13,33.341 12.17,31.847 9.668,30.179 C5.045,27.097 3,24.767 3,20.931 C3,17.061 4.478,13.809 7.668,11.683 C9.951,10.368 8.571,11.017 11.929,10.012 L12.927,10 z" fill="#EBE8BC"/>
      <g clip-path="url(#Clip_1)">
        <g>
          <path d="M8,38 C8,39.105 6.209,40 4,40" fill-opacity="0" stroke="#383838" stroke-width="0.5"/>
          <path d="M9,39 C9,40.657 7.657,42 6,42" fill-opacity="0" stroke="#383838" stroke-width="0.5"/>
          <path d="M12,43 C10.895,43 10,41.209 10,39" fill-opacity="0" stroke="#383838" stroke-width="0.5"/>
          <path d="M15,42 C13.343,42 12,40.209 12,38" fill-opacity="0" stroke="#383838" stroke-width="0.5"/>
          <path d="M16,39 C14.343,39 13,37.626 13,35.931" fill-opacity="0" stroke="#383838" stroke-width="0.5"/>
          <path d="M17,35.931 C14.239,35.931 12,35.066 12,34" fill-opacity="0" stroke="#383838" stroke-width="0.5"/>
          <path d="M17,32 C17,32.552 14.761,33 12,33" fill-opacity="0" stroke="#383838" stroke-width="0.5"/>
          <path d="M14,29 C14,30.657 12.657,32 11,32" fill-opacity="0" stroke="#383838" stroke-width="0.5"/>
          <path d="M12,27 C12,29.209 10.657,31 9,31" fill-opacity="0" stroke="#383838" stroke-width="0.5"/>
          <path d="M10,26 C10,28.209 9.105,30 8,30" fill-opacity="0" stroke="#383838" stroke-width="0.5"/>
          <path d="M9,26 L9,26" fill-opacity="0" stroke="#383838" stroke-width="0.5"/>
          <path d="M9,24 C9,26.209 7.657,28 6,28" fill-opacity="0" stroke="#383838" stroke-width="0.5"/>
          <path d="M7,23 C7,24.657 5.657,26 4,26" fill-opacity="0" stroke="#383838" stroke-width="0.5"/>
          <path d="M7,21 C7,22.105 5.209,23 3,23" fill-opacity="0" stroke="#383838" stroke-width="0.5"/>
          <path d="M4,15 L4,15" fill-opacity="0" stroke="#383838" stroke-width="0.5"/>
          <path d="M8,18 C5.239,18 3,16.209 3,14" fill-opacity="0" stroke="#383838" stroke-width="0.5"/>
          <path d="M7,20 C4.239,20 2,19.552 2,19" fill-opacity="0" stroke="#383838" stroke-width="0.5"/>
          <path d="M8,16 C6.343,16 5,14.657 5,13" fill-opacity="0" stroke="#383838" stroke-width="0.5"/>
          <path d="M9,15 C7.895,15 7,13.209 7,11" fill-opacity="0" stroke="#383838" stroke-width="0.5"/>
          <path d="M11,14 C10.448,14 10,12.209 10,10" fill-opacity="0" stroke="#383838" stroke-width="0.5"/>
          <path d="M13,14 C13,14 13,11.761 13,9" fill-opacity="0" stroke="#383838" stroke-width="0.5"/>
          <path d="M15,15 C15,12.239 15.895,10 17,10" fill-opacity="0" stroke="#383838" stroke-width="0.5"/>
          <path d="M16,16 C16,14.343 17.343,13 19,13" fill-opacity="0" stroke="#383838" stroke-width="0.5"/>
          <path d="M17,18 C17,16.343 18.791,15 21,15" fill-opacity="0" stroke="#383838" stroke-width="0.5"/>
          <path d="M19,19 C19,17.895 20.343,17 22,17" fill-opacity="0" stroke="#383838" stroke-width="0.5"/>
          <path d="M19,20 C19,19.448 21.239,19 24,19" fill-opacity="0" stroke="#383838" stroke-width="0.5"/>
          <path d="M20,21 C22.209,21 24,21.895 24,23" fill-opacity="0" stroke="#383838" stroke-width="0.5"/>
        </g>
      </g>
      <path d="M12.927,10 C15.191,10.1 16.905,11.417 18.579,12.782 C20.167,14.426 22.011,17.071 23.092,19.233 C23.713,20.477 24.063,21.496 24.062,22.322 C24.063,24.048 22.598,24.828 20.981,24.231 C20.204,23.945 19.806,23.082 20.093,22.305 C20.49,21.661 20.225,21.881 20.845,21.595 C20.614,20.968 20.754,21.31 20.408,20.575 C19.461,18.679 17.792,16.286 16.421,14.866 C14.176,12.541 11.989,12.408 9.332,14.179 C7.044,15.704 6,18.001 6,20.931 C6,23.423 7.492,25.123 11.332,27.683 C14.654,29.897 16,32.32 16,35.931 C16,39.494 12.644,42.431 9.5,42.431 C6.974,42.431 5.472,41.229 4.158,38.602 C3.788,37.861 4.088,36.96 4.829,36.589 C5.57,36.219 6.471,36.519 6.842,37.26 C7.695,38.966 8.276,39.431 9.5,39.431 C11.07,39.431 13,37.742 13,35.931 C13,33.341 12.17,31.847 9.668,30.179 C5.045,27.097 3,24.767 3,20.931 C3,17.061 4.478,13.809 7.668,11.683 C9.951,10.368 8.571,11.017 11.929,10.012 L12.927,10 z" fill-opacity="0" stroke="#BFBFBF" stroke-width="0.4" stroke-linecap="round"/>
    </g>
    <g>
      <path d="M9.853,12.67 C12.057,12.142 14.067,12.935 16.053,13.786 C18.033,14.929 20.534,16.963 22.169,18.744 C23.11,19.768 23.726,20.652 23.954,21.445 C24.43,23.104 23.237,24.258 21.518,24.13 C20.692,24.069 20.072,23.349 20.133,22.523 C20.337,21.794 20.143,22.079 20.66,21.634 C20.266,21.094 20.494,21.385 19.96,20.773 C18.526,19.212 16.262,17.371 14.553,16.384 C11.754,14.768 9.615,15.243 7.549,17.678 C5.77,19.775 5.4,22.27 6.207,25.087 C6.894,27.482 8.797,28.705 13.194,30.107 C16.998,31.32 18.959,33.278 19.955,36.749 C20.937,40.175 18.521,43.922 15.498,44.789 C13.07,45.485 11.295,44.744 9.308,42.58 C8.747,41.97 8.788,41.021 9.398,40.461 C10.008,39.901 10.957,39.941 11.517,40.551 C12.807,41.956 13.494,42.243 14.671,41.905 C16.18,41.472 17.57,39.317 17.071,37.576 C16.357,35.087 15.147,33.879 12.282,32.965 C6.989,31.277 4.381,29.601 3.323,25.913 C2.257,22.193 2.781,18.661 5.261,15.737 C7.094,13.844 5.946,14.848 8.897,12.957 L9.853,12.67 z" fill="#EBE8BC"/>
      <g clip-path="url(#Clip_2)">
        <g>
          <path d="M12.835,40.943 C13.139,42.005 11.664,43.36 9.541,43.968" fill-opacity="0" stroke="#383838" stroke-width="0.5"/>
          <path d="M14.072,41.629 C14.528,43.222 13.607,44.883 12.015,45.34" fill-opacity="0" stroke="#383838" stroke-width="0.5"/>
          <path d="M18.058,44.647 C16.996,44.952 15.642,43.477 15.033,41.353" fill-opacity="0" stroke="#383838" stroke-width="0.5"/>
          <path d="M20.666,42.859 C19.074,43.316 17.289,41.964 16.68,39.841" fill-opacity="0" stroke="#383838" stroke-width="0.5"/>
          <path d="M20.801,39.7 C19.208,40.156 17.538,39.205 17.071,37.576" fill-opacity="0" stroke="#383838" stroke-width="0.5"/>
          <path d="M20.916,36.473 C18.261,37.235 15.871,37.021 15.577,35.996" fill-opacity="0" stroke="#383838" stroke-width="0.5"/>
          <path d="M19.832,32.695 C19.985,33.226 17.956,34.273 15.302,35.034" fill-opacity="0" stroke="#383838" stroke-width="0.5"/>
          <path d="M16.122,30.638 C16.578,32.231 15.657,33.892 14.065,34.349" fill-opacity="0" stroke="#383838" stroke-width="0.5"/>
          <path d="M13.648,29.267 C14.257,31.39 13.459,33.482 11.867,33.939" fill-opacity="0" stroke="#383838" stroke-width="0.5"/>
          <path d="M11.45,28.857 C12.059,30.98 11.691,32.949 10.63,33.253" fill-opacity="0" stroke="#383838" stroke-width="0.5"/>
          <path d="M10.488,29.133 L10.488,29.133" fill-opacity="0" stroke="#383838" stroke-width="0.5"/>
          <path d="M9.937,27.21 C10.546,29.334 9.748,31.425 8.156,31.882" fill-opacity="0" stroke="#383838" stroke-width="0.5"/>
          <path d="M7.739,26.8 C8.196,28.393 7.275,30.054 5.682,30.511" fill-opacity="0" stroke="#383838" stroke-width="0.5"/>
          <path d="M7.188,24.878 C7.492,25.939 6.017,27.294 3.894,27.903" fill-opacity="0" stroke="#383838" stroke-width="0.5"/>
          <path d="M2.65,19.937 L2.65,19.937" fill-opacity="0" stroke="#383838" stroke-width="0.5"/>
          <path d="M7.322,21.718 C4.667,22.479 2.022,21.375 1.413,19.251" fill-opacity="0" stroke="#383838" stroke-width="0.5"/>
          <path d="M6.912,23.916 C4.257,24.677 1.982,24.864 1.83,24.333" fill-opacity="0" stroke="#383838" stroke-width="0.5"/>
          <path d="M6.771,19.796 C5.178,20.252 3.517,19.331 3.06,17.739" fill-opacity="0" stroke="#383838" stroke-width="0.5"/>
          <path d="M7.456,18.559 C6.394,18.863 5.04,17.388 4.431,15.265" fill-opacity="0" stroke="#383838" stroke-width="0.5"/>
          <path d="M9.103,17.046 C8.572,17.198 7.648,15.6 7.039,13.477" fill-opacity="0" stroke="#383838" stroke-width="0.5"/>
          <path d="M11.026,16.495 C11.026,16.495 10.409,14.343 9.648,11.689" fill-opacity="0" stroke="#383838" stroke-width="0.5"/>
          <path d="M13.224,16.905 C12.463,14.25 12.706,11.852 13.768,11.547" fill-opacity="0" stroke="#383838" stroke-width="0.5"/>
          <path d="M14.461,17.59 C14.004,15.998 14.925,14.336 16.518,13.88" fill-opacity="0" stroke="#383838" stroke-width="0.5"/>
          <path d="M15.973,19.237 C15.517,17.645 16.868,15.86 18.992,15.251" fill-opacity="0" stroke="#383838" stroke-width="0.5"/>
          <path d="M18.172,19.647 C17.867,18.586 18.911,17.355 20.504,16.898" fill-opacity="0" stroke="#383838" stroke-width="0.5"/>
          <path d="M18.447,20.609 C18.295,20.078 20.323,19.03 22.978,18.269" fill-opacity="0" stroke="#383838" stroke-width="0.5"/>
          <path d="M19.684,21.294 C21.808,20.685 23.776,21.052 24.081,22.114" fill-opacity="0" stroke="#383838" stroke-width="0.5"/>
        </g>
      </g>
      <path d="M9.853,12.67 C12.057,12.142 14.067,12.935 16.053,13.786 C18.033,14.929 20.534,16.963 22.169,18.744 C23.11,19.768 23.726,20.652 23.954,21.445 C24.43,23.104 23.237,24.258 21.518,24.13 C20.692,24.069 20.072,23.349 20.133,22.523 C20.337,21.794 20.143,22.079 20.66,21.634 C20.266,21.094 20.494,21.385 19.96,20.773 C18.526,19.212 16.262,17.371 14.553,16.384 C11.754,14.768 9.615,15.243 7.549,17.678 C5.77,19.775 5.4,22.27 6.207,25.087 C6.894,27.482 8.797,28.705 13.194,30.107 C16.998,31.32 18.959,33.278 19.955,36.749 C20.937,40.175 18.521,43.922 15.498,44.789 C13.07,45.485 11.295,44.744 9.308,42.58 C8.747,41.97 8.788,41.021 9.398,40.461 C10.008,39.901 10.957,39.941 11.517,40.551 C12.807,41.956 13.494,42.243 14.671,41.905 C16.18,41.472 17.57,39.317 17.071,37.576 C16.357,35.087 15.147,33.879 12.282,32.965 C6.989,31.277 4.381,29.601 3.323,25.913 C2.257,22.193 2.781,18.661 5.261,15.737 C7.094,13.844 5.946,14.848 8.897,12.957 L9.853,12.67 z" fill-opacity="0" stroke="#BFBFBF" stroke-width="0.4" stroke-linecap="round"/>
    </g>
    <g>
      <path d="M19.617,12.004 C20.804,12.598 20.439,12.183 20.923,13.026 C21.185,13.812 20.76,14.661 19.974,14.923 C18.707,15.345 18.32,15.483 17.98,15.64 C17.648,15.793 17.554,15.874 17.393,16.129 C17.271,16.322 17.16,16.534 16.842,17.171 C16.471,17.912 15.57,18.212 14.829,17.842 C14.088,17.471 13.788,16.57 14.158,15.829 C14.528,15.091 14.66,14.839 14.857,14.527 C15.332,13.775 15.872,13.309 16.723,12.916 C17.209,12.692 17.626,12.544 19.026,12.077 L19.617,12.004 z" fill="#EBE8BC"/>
      <g clip-path="url(#Clip_3)">
        <path d="M18,17 C15.791,17 14,15.657 14,14" fill-opacity="0" stroke="#383838" stroke-width="0.4"/>
        <path d="M19,16 C17.343,16 16,14.657 16,13" fill-opacity="0" stroke="#383838" stroke-width="0.4"/>
        <path d="M20.562,15.996 C18.562,14.996 18.5,14.207 18.5,12" fill-opacity="0" stroke="#383838" stroke-width="0.4"/>
      </g>
      <path d="M19.617,12.004 C20.804,12.598 20.439,12.183 20.923,13.026 C21.185,13.812 20.76,14.661 19.974,14.923 C18.707,15.345 18.32,15.483 17.98,15.64 C17.648,15.793 17.554,15.874 17.393,16.129 C17.271,16.322 17.16,16.534 16.842,17.171 C16.471,17.912 15.57,18.212 14.829,17.842 C14.088,17.471 13.788,16.57 14.158,15.829 C14.528,15.091 14.66,14.839 14.857,14.527 C15.332,13.775 15.872,13.309 16.723,12.916 C17.209,12.692 17.626,12.544 19.026,12.077 L19.617,12.004 z" fill-opacity="0" stroke="#BFBFBF" stroke-width="0.4" stroke-linecap="round"/>
    </g>
  </g>
</svg>
