<?xml version="1.0" encoding="UTF-8"?>
<!DOCTYPE svg PUBLIC "-//W3C//DTD SVG 1.1//EN" "http://www.w3.org/Graphics/SVG/1.1/DTD/svg11.dtd">
<svg version="1.1" xmlns="http://www.w3.org/2000/svg" xmlns:xlink="http://www.w3.org/1999/xlink" x="0" y="0" width="30" height="30" viewBox="0, 0, 30, 30">
  <g id="Layer_1">
    <path d="M2.068,19.676 C2.464,21.892 3.833,22.81 6.174,22.405 L6.401,22.373 L6.401,22.864 C6.401,25.115 7.578,26.25 9.953,26.25 L26.448,26.25 C28.813,26.25 30,25.115 30,22.864 L30,11.812 C30,9.562 28.813,8.426 26.448,8.426 L23.993,8.426 L23.326,4.833 C22.918,2.627 21.549,1.688 19.219,2.091 L2.973,4.866 C0.631,5.258 -0.308,6.558 0.088,8.786 z M3.844,19.271 L1.898,8.568 C1.695,7.465 2.204,6.777 3.323,6.58 L19.513,3.828 C20.611,3.643 21.346,4.112 21.549,5.226 L22.137,8.426 L9.953,8.426 C7.578,8.426 6.401,9.551 6.401,11.812 L6.401,20.582 L5.892,20.669 C4.783,20.865 4.059,20.385 3.844,19.271 z M8.222,11.91 C8.222,10.774 8.845,10.185 9.976,10.185 L26.425,10.185 C27.545,10.185 28.179,10.774 28.179,11.91 L28.179,20.592 L24.084,16.857 C23.597,16.421 23.008,16.202 22.409,16.202 C21.787,16.202 21.244,16.409 20.723,16.847 L15.712,21.149 L13.698,19.402 C13.222,18.998 12.714,18.779 12.182,18.779 C11.696,18.779 11.22,18.987 10.756,19.391 L8.222,21.51 z M13.879,17.131 C15.327,17.131 16.503,15.984 16.503,14.575 C16.503,13.188 15.327,12.03 13.879,12.03 C12.431,12.03 11.242,13.188 11.242,14.575 C11.242,15.984 12.431,17.131 13.879,17.131 z" fill="#000000"/>
  </g>
</svg>
