<?xml version="1.0" encoding="UTF-8" standalone="no"?>
<!DOCTYPE svg PUBLIC "-//W3C//DTD SVG 1.1//EN" "http://www.w3.org/Graphics/SVG/1.1/DTD/svg11.dtd">
<svg width="100%" height="100%" viewBox="0 0 60 60" version="1.1" xmlns="http://www.w3.org/2000/svg" xmlns:xlink="http://www.w3.org/1999/xlink" xml:space="preserve" xmlns:serif="http://www.serif.com/" style="fill-rule:evenodd;clip-rule:evenodd;stroke-linecap:round;stroke-linejoin:round;stroke-miterlimit:1.5;">
    <g id="Layer_3">
        <path id="Device" d="M15.144,24.536L14.105,22.737C13.103,21.002 13.859,18.576 15.942,17.373L15.942,17.373C15.942,17.373 31.058,8.646 31.058,8.646C33.141,7.443 35.62,8.001 36.622,9.737L38.16,12.402L38.593,12.152L42.093,18.214L41.66,18.464L53.895,39.655C54.897,41.39 54.141,43.816 52.058,45.019C52.058,45.019 36.942,53.746 36.942,53.746C34.859,54.949 32.38,54.391 31.378,52.655L21.144,34.928L20.711,35.178L18.711,31.714L19.144,31.464L18.644,30.598L18.211,30.848L16.211,27.384L16.644,27.134L16.144,26.268L15.711,26.518L14.711,24.786L15.144,24.536ZM40.97,30.636L30.03,36.952L31.03,38.684L41.97,32.368L40.97,30.636ZM27.572,36.062L37.964,30.062L36.964,28.33L26.572,34.33L27.572,36.062ZM27.03,31.756L30.422,29.798L29.422,28.066L26.03,30.024L27.03,31.756ZM39.24,29.325L41.428,28.062L40.428,26.33L38.24,27.593L39.24,29.325ZM31.807,28.998L37.97,25.44L36.97,23.708L30.807,27.266L31.807,28.998Z"/>
        <g id="Strings" transform="matrix(1,0,0,1,5,-0.0235675)">
            <path d="M19.5,14.5C19.5,14.5 17.276,10.829 15.25,10.212C12.071,9.246 9.362,10.866 7.25,12.212C4.394,14.033 3.965,20.633 6.25,25.712C8.535,30.791 10.901,34.955 10.25,38.212C9.599,41.47 4,43.524 4,43.524" style="fill:none;stroke:black;stroke-width:3px;"/>
            <g transform="matrix(0.984808,0.173648,-0.173648,0.984808,2.68034,-2.38039)">
                <path d="M19.5,14.5C19.5,14.5 17.276,10.829 15.25,10.212C12.071,9.246 9.362,10.866 7.25,12.212C4.394,14.033 3.687,21.187 5.971,26.266C8.256,31.345 9.285,35.232 8.634,38.489C7.984,41.747 4.231,42.312 4.231,42.312" style="fill:none;stroke:black;stroke-width:3px;"/>
            </g>
        </g>
    </g>
</svg>
