<?xml version="1.0" encoding="UTF-8" standalone="no"?>
<!DOCTYPE svg PUBLIC "-//W3C//DTD SVG 1.1//EN" "http://www.w3.org/Graphics/SVG/1.1/DTD/svg11.dtd">
<svg width="100%" height="100%" viewBox="0 0 3300 2200" version="1.1" xmlns="http://www.w3.org/2000/svg" xmlns:xlink="http://www.w3.org/1999/xlink" xml:space="preserve" xmlns:serif="http://www.serif.com/" style="fill-rule:evenodd;clip-rule:evenodd;">
    <g id="Notes">
        <rect id="artboard" x="0" y="0" width="3300" height="2200" style="fill:white;"/>
        <path d="M263,292L3036,292" style="fill:none;fill-rule:nonzero;stroke:black;stroke-width:0.5px;"/>
        <g transform="matrix(1,0,0,1,263,322)">
            <text x="0px" y="0px" style="font-family:'LucidaGrande-Bold', 'Lucida Grande', sans-serif;font-weight:600;font-size:13px;">Weight/Scale Variations</text>
        </g>
        <g transform="matrix(1,0,0,1,559.711,322)">
            <text x="-29.339px" y="0px" style="font-family:'LucidaGrande', 'Lucida Grande', sans-serif;font-weight:500;font-size:13px;">Ultralight</text>
        </g>
        <g transform="matrix(1,0,0,1,856.422,322)">
            <text x="-14.057px" y="0px" style="font-family:'LucidaGrande', 'Lucida Grande', sans-serif;font-weight:500;font-size:13px;">Thin</text>
        </g>
        <g transform="matrix(1,0,0,1,1153.13,322)">
            <text x="-15.863px" y="0px" style="font-family:'LucidaGrande', 'Lucida Grande', sans-serif;font-weight:500;font-size:13px;">Light</text>
        </g>
        <g transform="matrix(1,0,0,1,1449.84,322)">
            <text x="-23.947px" y="0px" style="font-family:'LucidaGrande', 'Lucida Grande', sans-serif;font-weight:500;font-size:13px;">Regular</text>
        </g>
        <g transform="matrix(1,0,0,1,1746.56,322)">
            <text x="-25.292px" y="0px" style="font-family:'LucidaGrande', 'Lucida Grande', sans-serif;font-weight:500;font-size:13px;">Medium</text>
        </g>
        <g transform="matrix(1,0,0,1,2043.27,322)">
            <text x="-29.123px" y="0px" style="font-family:'LucidaGrande', 'Lucida Grande', sans-serif;font-weight:500;font-size:13px;">Semibold</text>
        </g>
        <g transform="matrix(1,0,0,1,2339.98,322)">
            <text x="-13.701px" y="0px" style="font-family:'LucidaGrande', 'Lucida Grande', sans-serif;font-weight:500;font-size:13px;">Bold</text>
        </g>
        <g transform="matrix(1,0,0,1,2636.69,322)">
            <text x="-18.748px" y="0px" style="font-family:'LucidaGrande', 'Lucida Grande', sans-serif;font-weight:500;font-size:13px;">Heavy</text>
        </g>
        <g transform="matrix(1,0,0,1,2933.4,322)">
            <text x="-16.336px" y="0px" style="font-family:'LucidaGrande', 'Lucida Grande', sans-serif;font-weight:500;font-size:13px;">Black</text>
        </g>
        <path d="M263,1903L3036,1903" style="fill:none;fill-rule:nonzero;stroke:black;stroke-width:0.5px;"/>
        <g transform="matrix(1,0,0,1,263,1933)">
            <path d="M9.248,0.83C13.555,0.83 17.139,-2.744 17.139,-7.051C17.139,-11.357 13.545,-14.932 9.238,-14.932C4.941,-14.932 1.367,-11.357 1.367,-7.051C1.367,-2.744 4.951,0.83 9.248,0.83ZM9.248,-0.654C5.703,-0.654 2.871,-3.496 2.871,-7.051C2.871,-10.605 5.693,-13.447 9.238,-13.447C12.793,-13.447 15.645,-10.605 15.645,-7.051C15.645,-3.496 12.803,-0.654 9.248,-0.654ZM5.654,-7.051C5.654,-6.621 5.957,-6.328 6.406,-6.328L8.506,-6.328L8.506,-4.209C8.506,-3.77 8.799,-3.467 9.229,-3.467C9.678,-3.467 9.971,-3.77 9.971,-4.209L9.971,-6.328L12.09,-6.328C12.529,-6.328 12.832,-6.621 12.832,-7.051C12.832,-7.49 12.529,-7.793 12.09,-7.793L9.971,-7.793L9.971,-9.902C9.971,-10.352 9.678,-10.654 9.229,-10.654C8.799,-10.654 8.506,-10.352 8.506,-9.902L8.506,-7.793L6.406,-7.793C5.957,-7.793 5.654,-7.49 5.654,-7.051Z" style="fill-rule:nonzero;"/>
        </g>
        <g transform="matrix(1,0,0,1,281.867,1933)">
            <path d="M11.709,2.91C17.158,2.91 21.67,-1.611 21.67,-7.051C21.67,-12.5 17.148,-17.012 11.699,-17.012C6.26,-17.012 1.748,-12.5 1.748,-7.051C1.748,-1.611 6.27,2.91 11.709,2.91ZM11.709,1.25C7.1,1.25 3.418,-2.441 3.418,-7.051C3.418,-11.66 7.09,-15.352 11.699,-15.352C16.309,-15.352 20.01,-11.66 20.01,-7.051C20.01,-2.441 16.318,1.25 11.709,1.25ZM7.178,-7.051C7.178,-6.572 7.51,-6.25 8.008,-6.25L10.879,-6.25L10.879,-3.369C10.879,-2.881 11.211,-2.539 11.69,-2.539C12.178,-2.539 12.52,-2.871 12.52,-3.369L12.52,-6.25L15.4,-6.25C15.889,-6.25 16.23,-6.572 16.23,-7.051C16.23,-7.539 15.889,-7.881 15.4,-7.881L12.52,-7.881L12.52,-10.752C12.52,-11.25 12.178,-11.592 11.69,-11.592C11.211,-11.592 10.879,-11.25 10.879,-10.752L10.879,-7.881L8.008,-7.881C7.51,-7.881 7.178,-7.539 7.178,-7.051Z" style="fill-rule:nonzero;"/>
        </g>
        <g transform="matrix(1,0,0,1,305.646,1933)">
            <path d="M14.971,5.664C21.934,5.664 27.695,-0.098 27.695,-7.051C27.695,-14.014 21.924,-19.775 14.961,-19.775C8.008,-19.775 2.256,-14.014 2.256,-7.051C2.256,-0.098 8.018,5.664 14.971,5.664ZM14.971,3.848C8.936,3.848 4.082,-1.016 4.082,-7.051C4.082,-13.096 8.926,-17.949 14.961,-17.949C21.006,-17.949 25.869,-13.096 25.869,-7.051C25.869,-1.016 21.016,3.848 14.971,3.848ZM9.199,-7.051C9.199,-6.533 9.57,-6.172 10.117,-6.172L14.063,-6.172L14.063,-2.217C14.063,-1.68 14.434,-1.299 14.951,-1.299C15.488,-1.299 15.859,-1.67 15.859,-2.217L15.859,-6.172L19.815,-6.172C20.352,-6.172 20.732,-6.533 20.732,-7.051C20.732,-7.598 20.361,-7.969 19.815,-7.969L15.859,-7.969L15.859,-11.914C15.859,-12.461 15.488,-12.842 14.951,-12.842C14.434,-12.842 14.063,-12.461 14.063,-11.914L14.063,-7.969L10.117,-7.969C9.57,-7.969 9.199,-7.598 9.199,-7.051Z" style="fill-rule:nonzero;"/>
        </g>
        <g transform="matrix(1,0,0,1,263,1953)">
            <text x="0px" y="0px" style="font-family:'LucidaGrande-Bold', 'Lucida Grande', sans-serif;font-weight:600;font-size:13px;">Design Variations</text>
        </g>
        <g transform="matrix(1,0,0,1,263,1971)">
            <text x="0px" y="0px" style="font-family:'LucidaGrande', 'Lucida Grande', sans-serif;font-weight:500;font-size:13px;">Symbols are supported in up to nine weights and three scales.</text>
        </g>
        <g transform="matrix(1,0,0,1,263,1989)">
            <text x="0px" y="0px" style="font-family:'LucidaGrande', 'Lucida Grande', sans-serif;font-weight:500;font-size:13px;">For optimal layout with text and other symbols, vertically align</text>
        </g>
        <g transform="matrix(1,0,0,1,263,2007)">
            <text x="0px" y="0px" style="font-family:'LucidaGrande', 'Lucida Grande', sans-serif;font-weight:500;font-size:13px;">symbols with the adjacent text.</text>
        </g>
        <path d="M776,1919L776,1933" style="fill:none;fill-rule:nonzero;stroke:rgb(0,174,239);stroke-width:0.5px;"/>
        <g transform="matrix(1,0,0,1,776,1933)">
            <path d="M3.311,0.156C3.828,0.156 4.082,-0.039 4.268,-0.586L5.527,-4.033L11.289,-4.033L12.549,-0.586C12.734,-0.039 12.988,0.156 13.496,0.156C14.014,0.156 14.346,-0.156 14.346,-0.645C14.346,-0.811 14.316,-0.967 14.238,-1.172L9.658,-13.369C9.434,-13.965 9.033,-14.268 8.408,-14.268C7.803,-14.268 7.393,-13.975 7.178,-13.379L2.598,-1.162C2.52,-0.957 2.49,-0.801 2.49,-0.635C2.49,-0.146 2.803,0.156 3.311,0.156ZM6.006,-5.518L8.379,-12.09L8.428,-12.09L10.801,-5.518L6.006,-5.518Z" style="fill-rule:nonzero;"/>
        </g>
        <path d="M793.197,1919L793.197,1933" style="fill:none;fill-rule:nonzero;stroke:rgb(0,174,239);stroke-width:0.5px;"/>
        <g transform="matrix(1,0,0,1,776,1953)">
            <text x="0px" y="0px" style="font-family:'LucidaGrande-Bold', 'Lucida Grande', sans-serif;font-weight:600;font-size:13px;">Margins</text>
        </g>
        <g transform="matrix(1,0,0,1,776,1971)">
            <text x="0px" y="0px" style="font-family:'LucidaGrande', 'Lucida Grande', sans-serif;font-weight:500;font-size:13px;">Leading and trailing margins on the left and right side of each symbol</text>
        </g>
        <g transform="matrix(1,0,0,1,776,1989)">
            <text x="0px" y="0px" style="font-family:'LucidaGrande', 'Lucida Grande', sans-serif;font-weight:500;font-size:13px;">can be adjusted by modifying the x-location of the margin guidelines.</text>
        </g>
        <g transform="matrix(1,0,0,1,776,2007)">
            <text x="0px" y="0px" style="font-family:'LucidaGrande', 'Lucida Grande', sans-serif;font-weight:500;font-size:13px;">Modiﬁcations are automatically applied proportionally to all</text>
        </g>
        <g transform="matrix(1,0,0,1,776,2025)">
            <text x="0px" y="0px" style="font-family:'LucidaGrande', 'Lucida Grande', sans-serif;font-weight:500;font-size:13px;">scales and weights.</text>
        </g>
        <g transform="matrix(1,0,0,1,1289,1933)">
            <path d="M2.842,1.865L4.541,3.574C5.4,4.443 6.387,4.385 7.314,3.359L18.008,-8.428L17.041,-9.404L6.426,2.275C6.074,2.676 5.742,2.773 5.273,2.305L4.102,1.143C3.633,0.684 3.74,0.342 4.141,-0.02L15.615,-10.82L14.639,-11.787L3.047,-0.898C2.061,0.02 1.982,0.996 2.842,1.865ZM9.258,-16.328C8.838,-15.918 8.809,-15.342 9.043,-14.951C9.277,-14.59 9.736,-14.355 10.381,-14.522C11.846,-14.863 13.369,-14.922 14.795,-13.984L14.209,-12.529C13.867,-11.699 14.043,-11.113 14.58,-10.566L16.875,-8.252C17.363,-7.764 17.773,-7.744 18.34,-7.842L19.404,-8.037L20.068,-7.363L20.029,-6.807C19.99,-6.309 20.117,-5.928 20.606,-5.449L21.367,-4.707C21.846,-4.229 22.461,-4.199 22.93,-4.668L25.84,-7.588C26.309,-8.057 26.289,-8.652 25.811,-9.131L25.039,-9.893C24.561,-10.371 24.19,-10.527 23.711,-10.488L23.135,-10.44L22.49,-11.074L22.734,-12.197C22.861,-12.764 22.705,-13.203 22.119,-13.789L19.922,-15.977C16.582,-19.297 12.148,-19.219 9.258,-16.328ZM10.752,-15.957C13.184,-17.734 16.475,-17.432 18.701,-15.205L21.133,-12.793C21.367,-12.559 21.406,-12.373 21.338,-12.031L21.016,-10.547L22.52,-9.063L23.506,-9.121C23.76,-9.131 23.838,-9.111 24.033,-8.916L24.609,-8.34L22.168,-5.898L21.592,-6.475C21.397,-6.67 21.367,-6.748 21.377,-7.012L21.445,-7.988L19.951,-9.473L18.428,-9.219C18.106,-9.15 17.959,-9.18 17.715,-9.414L15.713,-11.416C15.459,-11.65 15.43,-11.816 15.586,-12.188L16.465,-14.277C14.902,-15.732 12.871,-16.357 10.84,-15.762C10.684,-15.723 10.625,-15.85 10.752,-15.957Z" style="fill-rule:nonzero;"/>
        </g>
        <g transform="matrix(1,0,0,1,1289,1953)">
            <text x="0px" y="0px" style="font-family:'LucidaGrande-Bold', 'Lucida Grande', sans-serif;font-weight:600;font-size:13px;">Exporting</text>
        </g>
        <g transform="matrix(1,0,0,1,1289,1971)">
            <text x="0px" y="0px" style="font-family:'LucidaGrande', 'Lucida Grande', sans-serif;font-weight:500;font-size:13px;">Symbols should be outlined when exporting to ensure the</text>
        </g>
        <g transform="matrix(1,0,0,1,1289,1989)">
            <text x="0px" y="0px" style="font-family:'LucidaGrande', 'Lucida Grande', sans-serif;font-weight:500;font-size:13px;">design is preserved when submitting to Xcode.</text>
        </g>
        <g id="template-version" transform="matrix(1,0,0,1,3036,1933)">
            <text x="-94.333px" y="0px" style="font-family:'LucidaGrande', 'Lucida Grande', sans-serif;font-weight:500;font-size:13px;">Template v.4.0</text>
        </g>
        <g transform="matrix(1,0,0,1,3036,1951)">
            <text x="-184.336px" y="0px" style="font-family:'LucidaGrande', 'Lucida Grande', sans-serif;font-weight:500;font-size:13px;">Requires Xcode 14 or greater</text>
        </g>
        <g id="descriptive-name" transform="matrix(1,0,0,1,3036,1969)">
            <text x="-202.186px" y="0px" style="font-family:'LucidaGrande', 'Lucida Grande', sans-serif;font-weight:500;font-size:13px;">Generated from LockScreenText</text>
        </g>
        <g transform="matrix(1,0,0,1,3036,1987)">
            <text x="-137.693px" y="0px" style="font-family:'LucidaGrande', 'Lucida Grande', sans-serif;font-weight:500;font-size:13px;">Typeset at 100 points</text>
        </g>
        <g transform="matrix(1,0,0,1,263,726)">
            <text x="0px" y="0px" style="font-family:'LucidaGrande', 'Lucida Grande', sans-serif;font-weight:500;font-size:13px;">Small</text>
        </g>
        <g transform="matrix(1,0,0,1,263,1156)">
            <text x="0px" y="0px" style="font-family:'LucidaGrande', 'Lucida Grande', sans-serif;font-weight:500;font-size:13px;">Medium</text>
        </g>
        <g transform="matrix(1,0,0,1,263,1586)">
            <text x="0px" y="0px" style="font-family:'LucidaGrande', 'Lucida Grande', sans-serif;font-weight:500;font-size:13px;">Large</text>
        </g>
    </g>
    <g id="Guides">
        <g id="H-reference" transform="matrix(1,0,0,1,339,696)">
            <path d="M0.994,0L3.638,0L29.328,-67.132L30.03,-67.132L30.03,-70.459L28.123,-70.459L0.994,0ZM11.689,-24.48L46.981,-24.48L46.231,-26.729L12.439,-26.729L11.689,-24.48ZM55.12,0L57.764,0L30.638,-70.459L29.433,-70.459L29.433,-67.132L55.12,0Z" style="fill:rgb(39,170,225);fill-rule:nonzero;"/>
        </g>
        <path id="Baseline-S" d="M263,696L3036,696" style="fill:none;fill-rule:nonzero;stroke:rgb(39,170,225);stroke-width:0.5px;"/>
        <path id="Capline-S" d="M263,625.541L3036,625.541" style="fill:none;fill-rule:nonzero;stroke:rgb(39,170,225);stroke-width:0.5px;"/>
        <g id="H-reference1" serif:id="H-reference" transform="matrix(1,0,0,1,339,1126)">
            <path d="M0.994,0L3.638,0L29.328,-67.132L30.03,-67.132L30.03,-70.459L28.123,-70.459L0.994,0ZM11.689,-24.48L46.981,-24.48L46.231,-26.729L12.439,-26.729L11.689,-24.48ZM55.12,0L57.764,0L30.638,-70.459L29.433,-70.459L29.433,-67.132L55.12,0Z" style="fill:rgb(39,170,225);fill-rule:nonzero;"/>
        </g>
        <path id="Baseline-M" d="M263,1126L3036,1126" style="fill:none;fill-rule:nonzero;stroke:rgb(39,170,225);stroke-width:0.5px;"/>
        <path id="Capline-M" d="M263,1055.54L3036,1055.54" style="fill:none;fill-rule:nonzero;stroke:rgb(39,170,225);stroke-width:0.5px;"/>
        <g id="H-reference2" serif:id="H-reference" transform="matrix(1,0,0,1,339,1556)">
            <path d="M0.994,0L3.638,0L29.328,-67.132L30.03,-67.132L30.03,-70.459L28.123,-70.459L0.994,0ZM11.689,-24.48L46.981,-24.48L46.231,-26.729L12.439,-26.729L11.689,-24.48ZM55.12,0L57.764,0L30.638,-70.459L29.433,-70.459L29.433,-67.132L55.12,0Z" style="fill:rgb(39,170,225);fill-rule:nonzero;"/>
        </g>
        <path id="Baseline-L" d="M263,1556L3036,1556" style="fill:none;fill-rule:nonzero;stroke:rgb(39,170,225);stroke-width:0.5px;"/>
        <path id="Capline-L" d="M263,1485.54L3036,1485.54" style="fill:none;fill-rule:nonzero;stroke:rgb(39,170,225);stroke-width:0.5px;"/>
        <path id="left-margin-Ultralight-S" d="M509.649,600.785L509.649,720.121" style="fill:none;fill-rule:nonzero;stroke:rgb(0,174,239);stroke-width:0.5px;"/>
        <path id="right-margin-Ultralight-S" d="M609.773,600.785L609.773,720.121" style="fill:none;fill-rule:nonzero;stroke:rgb(0,174,239);stroke-width:0.5px;"/>
        <path id="left-margin-Regular-S" d="M1397.99,600.785L1397.99,720.121" style="fill:none;fill-rule:nonzero;stroke:rgb(0,174,239);stroke-width:0.5px;"/>
        <path id="right-margin-Regular-S" d="M1501.7,600.785L1501.7,720.121" style="fill:none;fill-rule:nonzero;stroke:rgb(0,174,239);stroke-width:0.5px;"/>
        <path id="left-margin-Black-S" d="M2877.3,600.785L2877.3,720.121" style="fill:none;fill-rule:nonzero;stroke:rgb(0,174,239);stroke-width:0.5px;"/>
        <path id="right-margin-Black-S" d="M2989.5,600.785L2989.5,720.121" style="fill:none;fill-rule:nonzero;stroke:rgb(0,174,239);stroke-width:0.5px;"/>
    </g>
    <g id="Symbols">
        <g id="Black-S" transform="matrix(1,0,0,1,2876.52,690.03)">
            <path d="M51.671,-63.83L62.639,-70.163C66.288,-72.27 70.631,-71.292 72.386,-68.251L75.081,-63.583L75.839,-64.021L81.971,-53.401L81.212,-52.963L102.646,-15.839C104.401,-12.8 103.077,-8.55 99.428,-6.442L72.947,8.846C69.298,10.953 64.955,9.976 63.2,6.935L45.271,-24.12L44.513,-23.682L41.009,-29.751L41.767,-30.189L40.892,-31.706L40.133,-31.268L36.629,-37.336L37.388,-37.774L36.512,-39.291L35.753,-38.853L34.002,-41.888L34.76,-42.326L32.94,-45.477C31.185,-48.517 32.509,-52.767 36.158,-54.874L46.832,-61.037C46.639,-61.381 46.433,-61.731 46.214,-62.08C46.089,-62.277 45.963,-62.475 45.834,-62.672C44.933,-63.66 43.949,-64.639 42.939,-64.947C38.213,-66.382 34.243,-63.742 31.102,-61.741C29.611,-60.79 28.795,-58.753 28.341,-56.332C27.516,-51.919 28.159,-46.22 30.335,-41.385C32.782,-35.944 35.272,-31.084 36.629,-26.815C37.668,-23.546 38.057,-20.568 37.523,-17.894C36.946,-15.012 34.744,-12.464 32.16,-10.554C28.785,-8.059 24.902,-6.635 24.902,-6.635C23.539,-6.136 22.029,-6.837 21.53,-8.198C21.031,-9.559 21.73,-11.071 23.091,-11.57C23.091,-11.57 26.272,-12.737 29.037,-14.781C30.549,-15.897 32.032,-17.237 32.369,-18.923L32.369,-18.924C32.856,-21.358 32.104,-24.11 30.917,-27.223C30.238,-28.997 29.406,-30.867 28.499,-32.831C29.091,-27.565 28.751,-23.208 27.32,-19.538C24.584,-12.513 16.047,-12.609 16.047,-12.609C14.596,-12.644 13.449,-13.851 13.486,-15.302C13.522,-16.75 14.729,-17.898 16.178,-17.863C16.178,-17.863 20.934,-17.623 22.424,-21.445C24.384,-26.473 23.671,-32.974 21.45,-41.744C19.876,-47.949 20.582,-55.207 22.695,-60.555C24.291,-64.597 26.754,-67.547 29.471,-68.673C34.138,-70.608 40.101,-72.638 46.077,-69.607C46.077,-69.605 46.079,-69.605 46.079,-69.605C47.387,-68.94 48.673,-67.691 49.768,-66.198C49.824,-66.123 49.879,-66.047 49.933,-65.97C50.578,-65.245 51.168,-64.502 51.671,-63.83ZM80.003,-31.639L60.838,-20.575L62.59,-17.54L81.755,-28.605L80.003,-31.639ZM56.532,-22.134L74.737,-32.645L72.985,-35.679L54.78,-25.168L56.532,-22.134ZM63.951,-34.509L74.748,-40.742L72.996,-43.776L62.199,-37.543L63.951,-34.509ZM55.583,-29.677L61.525,-33.107L59.773,-36.142L53.831,-32.712L55.583,-29.677ZM76.973,-33.936L80.806,-36.149L79.054,-39.183L75.221,-36.97L76.973,-33.936Z" style="fill-rule:nonzero;"/>
        </g>
        <g id="Regular-S" transform="matrix(1,0,0,1,1397.61,689.202)">
            <path d="M45.651,-63.002L56.619,-69.335C60.268,-71.442 64.611,-70.464 66.366,-67.423L69.061,-62.755L69.819,-63.193L75.951,-52.573L75.192,-52.135L96.626,-15.011C98.381,-11.972 97.057,-7.722 93.408,-5.614L66.927,9.674C63.278,11.781 58.935,10.804 57.179,7.763L39.251,-23.292L38.493,-22.854L34.989,-28.923L35.747,-29.361L34.872,-30.878L34.113,-30.44L30.609,-36.508L31.368,-36.946L30.492,-38.463L29.733,-38.025L27.982,-41.06L28.74,-41.498L26.92,-44.649C25.165,-47.689 26.489,-51.939 30.138,-54.046L40.812,-60.209C40.619,-60.553 40.413,-60.903 40.194,-61.252C40.069,-61.449 39.943,-61.647 39.814,-61.844C38.913,-62.832 37.929,-63.811 36.919,-64.119C32.193,-65.554 28.223,-62.914 25.082,-60.913C23.591,-59.962 22.775,-57.925 22.321,-55.504C21.496,-51.091 22.139,-45.392 24.315,-40.557C26.762,-35.116 29.252,-30.256 30.609,-25.987C31.648,-22.718 32.037,-19.74 31.503,-17.066C30.926,-14.185 28.724,-11.636 26.14,-9.726C22.765,-7.231 18.882,-5.807 18.882,-5.807C17.519,-5.308 16.009,-6.009 15.51,-7.37C15.011,-8.731 15.71,-10.243 17.071,-10.742C17.071,-10.742 20.252,-11.909 23.017,-13.953C24.529,-15.069 26.012,-16.409 26.349,-18.095L26.349,-18.096C26.836,-20.53 26.084,-23.282 24.897,-26.395C24.219,-28.17 23.386,-30.039 22.479,-32.003C23.071,-26.737 22.731,-22.38 21.3,-18.709C18.564,-11.685 10.027,-11.781 10.027,-11.781C8.576,-11.816 7.429,-13.023 7.466,-14.474C7.502,-15.922 8.709,-17.07 10.158,-17.035C10.158,-17.035 14.914,-16.795 16.404,-20.617C18.364,-25.645 17.651,-32.146 15.43,-40.916C13.856,-47.121 14.562,-54.379 16.675,-59.727C18.271,-63.769 20.734,-66.719 23.451,-67.845C28.118,-69.78 34.081,-71.81 40.057,-68.779C40.057,-68.777 40.059,-68.777 40.059,-68.777C41.367,-68.112 42.653,-66.863 43.748,-65.37C43.804,-65.295 43.859,-65.219 43.913,-65.142C44.558,-64.417 45.148,-63.674 45.651,-63.002ZM73.983,-30.811L54.818,-19.747L56.57,-16.712L75.735,-27.777L73.983,-30.811ZM50.512,-21.306L68.717,-31.817L66.965,-34.851L48.76,-24.34L50.512,-21.306ZM57.931,-33.681L68.728,-39.914L66.976,-42.948L56.179,-36.715L57.931,-33.681ZM49.563,-28.849L55.505,-32.279L53.753,-35.314L47.811,-31.884L49.563,-28.849ZM70.953,-33.108L74.786,-35.321L73.034,-38.355L69.201,-36.142L70.953,-33.108Z" style="fill-rule:nonzero;"/>
        </g>
        <g id="Ultralight-S" transform="matrix(1,0,0,1,509.614,689.202)">
            <path d="M43.572,-63.002L54.54,-69.335C58.189,-71.442 62.532,-70.464 64.287,-67.423L66.982,-62.755L67.74,-63.193L73.872,-52.573L73.113,-52.135L94.547,-15.011C96.302,-11.972 94.978,-7.722 91.329,-5.614L64.848,9.674C61.199,11.781 56.856,10.804 55.1,7.763L37.172,-23.292L36.414,-22.854L32.91,-28.923L33.668,-29.361L32.792,-30.878L32.034,-30.44L28.53,-36.508L29.289,-36.946L28.413,-38.463L27.654,-38.025L25.903,-41.06L26.661,-41.498L24.841,-44.649C23.086,-47.689 24.41,-51.939 28.059,-54.046L38.733,-60.209C38.54,-60.553 38.334,-60.903 38.115,-61.252C37.99,-61.449 37.864,-61.647 37.734,-61.844C36.834,-62.832 35.85,-63.811 34.84,-64.119C30.114,-65.554 26.144,-62.914 23.003,-60.913C21.512,-59.962 20.696,-57.925 20.242,-55.504C19.417,-51.091 20.06,-45.392 22.236,-40.557C24.683,-35.116 27.173,-30.256 28.53,-25.987C29.569,-22.718 29.958,-19.74 29.424,-17.066C28.847,-14.185 26.645,-11.636 24.061,-9.726C20.686,-7.231 16.803,-5.807 16.803,-5.807C15.44,-5.308 13.93,-6.009 13.431,-7.37C12.932,-8.731 13.631,-10.243 14.992,-10.742C14.992,-10.742 18.173,-11.909 20.938,-13.953C22.45,-15.069 23.933,-16.409 24.27,-18.095L24.27,-18.096C24.757,-20.53 24.005,-23.282 22.818,-26.395C22.14,-28.17 21.307,-30.039 20.4,-32.003C20.992,-26.737 20.652,-22.38 19.221,-18.709C16.485,-11.685 7.948,-11.781 7.948,-11.781C6.497,-11.816 5.35,-13.023 5.387,-14.474C5.423,-15.922 6.63,-17.07 8.079,-17.035C8.079,-17.035 12.835,-16.795 14.325,-20.617C16.285,-25.645 15.572,-32.146 13.351,-40.916C11.777,-47.121 12.483,-54.379 14.596,-59.727C16.192,-63.769 18.655,-66.719 21.372,-67.845C26.039,-69.78 32.002,-71.81 37.978,-68.779C37.978,-68.777 37.98,-68.777 37.98,-68.777C39.288,-68.112 40.574,-66.863 41.669,-65.37C41.725,-65.295 41.78,-65.219 41.834,-65.142C42.478,-64.417 43.069,-63.674 43.572,-63.002ZM71.904,-30.811L52.739,-19.747L54.491,-16.712L73.656,-27.777L71.904,-30.811ZM48.433,-21.306L66.638,-31.817L64.886,-34.851L46.681,-24.34L48.433,-21.306ZM55.852,-33.681L66.649,-39.914L64.897,-42.948L54.1,-36.715L55.852,-33.681ZM47.484,-28.849L53.426,-32.279L51.674,-35.314L45.732,-31.884L47.484,-28.849ZM68.874,-33.108L72.707,-35.321L70.955,-38.355L67.122,-36.142L68.874,-33.108Z" style="fill-rule:nonzero;"/>
        </g>
    </g>
</svg>
