<?xml version="1.0" encoding="UTF-8"?>
<!DOCTYPE svg PUBLIC "-//W3C//DTD SVG 1.1//EN" "http://www.w3.org/Graphics/SVG/1.1/DTD/svg11.dtd">
<svg version="1.1" xmlns="http://www.w3.org/2000/svg" xmlns:xlink="http://www.w3.org/1999/xlink" x="0" y="0" width="30" height="30" viewBox="0, 0, 30, 30">
  <g id="Layer_1">
    <path d="M15,29 C22.659,29 29,22.645 29,15 C29,7.341 22.645,1 14.986,1 C7.341,1 1,7.341 1,15 C1,22.645 7.355,29 15,29 z M15,26.667 C8.522,26.667 3.347,21.478 3.347,15 C3.347,8.522 8.508,3.333 14.986,3.333 C21.465,3.333 26.653,8.522 26.667,15 C26.68,21.478 21.478,26.667 15,26.667 z M14.876,10.114 C15.878,10.114 16.661,9.318 16.661,8.329 C16.661,7.327 15.878,6.531 14.876,6.531 C13.888,6.531 13.092,7.327 13.092,8.329 C13.092,9.318 13.888,10.114 14.876,10.114 z M12.598,22.549 L18.184,22.549 C18.747,22.549 19.186,22.151 19.186,21.588 C19.186,21.053 18.747,20.627 18.184,20.627 L16.482,20.627 L16.482,13.641 C16.482,12.9 16.112,12.406 15.412,12.406 L12.831,12.406 C12.269,12.406 11.829,12.831 11.829,13.367 C11.829,13.929 12.269,14.327 12.831,14.327 L14.3,14.327 L14.3,20.627 L12.598,20.627 C12.035,20.627 11.596,21.053 11.596,21.588 C11.596,22.151 12.035,22.549 12.598,22.549 z" fill="#000000"/>
  </g>
</svg>
